<svg xmlns="http://www.w3.org/2000/svg" viewBox="0 0 448 512"><!--!Font Awesome Free 6.5.2 by @fontawesome - https://fontawesome.com License - https://fontawesome.com/license/free Copyright 2024 Fonticons, Inc.--><path fill="#8A2BE2" d="M224.1 141c-63.6 0-114.9 51.3-114.9 114.9s51.3 114.9 114.9 114.9S339 319.5 339 255.9 287.7 141 224.1 141zm0 189.6c-41.1 0-74.7-33.5-74.7-74.7s33.5-74.7 74.7-74.7 74.7 33.5 74.7 74.7-33.6 74.7-74.7 74.7zm146.4-194.3c0 14.9-12 26.8-26.8 26.8-14.9 0-26.8-12-26.8-26.8s12-26.8 26.8-26.8 26.8 12 26.8 26.8zm76.1-27.2c-1.1-9.2-3.3-18.5-7.7-27.1s-10-16.7-16.7-23.4c-6.7-6.7-15.2-12.8-23.8-17.1-8.7-4.3-18-6.5-27.2-7.7-25.2-2.7-100.1-2.7-100.1-2.7h0s-74.9 0-100.1 2.7c-9.2 1.1-18.5 3.3-27.1 7.7-8.7 4.3-16.7 10-23.4 16.7-6.7 6.7-12.8 15.2-17.1 23.8-4.3 8.7-6.5 18-7.7 27.2-2.7 25.2-2.7 100.1-2.7 100.1v0s0 74.9 2.7 100.1c1.1 9.2 3.3 18.5 7.7 27.1 4.3 8.7 10 16.7 16.7 23.4 6.7 6.7 15.2 12.8 23.8 17.1 8.7 4.3 18 6.5 27.2 7.7 25.2 2.7 100.1 2.7 100.1 2.7h0s74.9 0 100.1-2.7c9.2-1.1 18.5-3.3 27.1-7.7 8.7-4.3 16.7-10 23.4-16.7 6.7-6.7 12.8-15.2 17.1-23.8 4.3-8.7 6.5-18 7.7-27.2 2.7-25.2 2.7-100.1 2.7-100.1v0s0-74.9-2.7-100.1zM400 255.9c0 49.9-10.3 99.4-30.9 145.1-2.4 5.6-5.4 11-8.7 16.2-4.3 6.7-9.3 12.9-15.1 18.7-5.8 5.8-12 10.8-18.7 15.1-5.2 3.4-10.6 6.4-16.2 8.7-45.7 20.6-95.2 30.9-145.1 30.9s-99.4-10.3-145.1-30.9c-5.6-2.4-11-5.4-16.2-8.7-6.7-4.3-12.9-9.3-18.7-15.1-5.8-5.8-10.8-12-15.1-18.7-3.4-5.2-6.4-10.6-8.7-16.2-20.6-45.7-30.9-95.2-30.9-145.1s10.3-99.4 30.9-145.1c2.4-5.6 5.4-11 8.7-16.2 4.3-6.7 9.3-12.9 15.1-18.7 5.8-5.8 12-10.8 18.7-15.1 5.2-3.4 10.6-6.4 16.2-8.7C124.7 6.3 174.2-4 224.1-4s99.4 10.3 145.1 30.9c5.6 2.4 11 5.4 16.2 8.7 6.7 4.3 12.9 9.3 18.7 15.1 5.8 5.8 10.8 12 15.1 18.7 3.4 5.2 6.4 10.6 8.7 16.2 20.6 45.7 30.9 95.2 30.9 145.1z"/></svg>