<svg xmlns="http://www.w3.org/2000/svg" viewBox="0 0 448 512"><!--!Font Awesome Free 6.5.2 by @fontawesome - https://fontawesome.com License - https://fontawesome.com/license/free Copyright 2024 Fonticons, Inc.--><path fill="#8A2BE2" d="M448 209.9a210.1 210.1 0 0 1 -122.8-39.3V349.4A162.6 162.6 0 0 0 176 202.6c0-11.2 1.5-22.2 3.4-32.9c-4.7-2.5-9.6-4.9-14.6-7.2C117.7 135.8 72 186.2 72 244.6c0 72.9 59.1 132.1 132.1 132.1c36.2 0 69.1-14.5 93.5-38.1c5.3 1.3 10.7 2.4 16.2 3.4V250.8c0-11.2 1.5-22.2 3.4-32.9c-4.7-2.5-9.6-4.9-14.6-7.2C355.3 135.8 310 186.2 310 244.6c0 72.9 59.1 132.1 132.1 132.1c36.2 0 69.1-14.5 93.5-38.1c5.3 1.3 10.7 2.4 16.2 3.4V250.8c0-11.2 1.5-22.2 3.4-32.9c-4.7-2.5-9.6-4.9-14.6-7.2C448 209.9 448 209.9 448 209.9z"/></svg>